<svg width="20" height="20" viewBox="0 0 20 20" fill="none" xmlns="http://www.w3.org/2000/svg">
<path d="M1.62141 9.86623L1.09108 9.3359L1.62141 9.86623ZM6.28294 5.2047L5.75261 4.67437L6.28294 5.2047ZM14.7953 13.7171L14.265 13.1867L14.7953 13.7171ZM1.41422 10.0734L1.94455 10.6038L1.41422 10.0734ZM15.8106 12.7018L16.3409 13.2321L15.8106 12.7018ZM16.3958 11.2388L17.1456 11.2205L16.3958 11.2388ZM7.29825 4.18939L7.82858 4.71972L7.29825 4.18939ZM8.76123 3.6042L8.77952 2.85442L8.76123 3.6042ZM7.62848 18.0555L1.94455 12.3715L0.883887 13.4322L6.56782 19.1161L7.62848 18.0555ZM1.94455 10.6038L2.15174 10.3966L1.09108 9.3359L0.883887 9.54309L1.94455 10.6038ZM9.60344 17.8483L9.39625 18.0555L10.4569 19.1161L10.6641 18.9089L9.60344 17.8483ZM2.15174 10.3966L6.81327 5.73503L5.75261 4.67437L1.09108 9.3359L2.15174 10.3966ZM6.81327 5.73503L7.82858 4.71972L6.76792 3.65906L5.75261 4.67437L6.81327 5.73503ZM15.2803 12.1714L14.265 13.1867L15.3256 14.2474L16.3409 13.2321L15.2803 12.1714ZM14.265 13.1867L9.60344 17.8483L10.6641 18.9089L15.3256 14.2474L14.265 13.1867ZM8.74294 4.35398L14.5338 4.49522L14.5704 2.99566L8.77952 2.85442L8.74294 4.35398ZM15.5048 5.4662L15.646 11.2571L17.1456 11.2205L17.0043 5.42963L15.5048 5.4662ZM14.5338 4.49522C15.0646 4.50816 15.4918 4.9354 15.5048 5.4662L17.0043 5.42963C16.9719 4.09906 15.9009 3.02812 14.5704 2.99566L14.5338 4.49522ZM1.94455 12.3715C1.45639 11.8834 1.45639 11.0919 1.94455 10.6038L0.883887 9.54309C-0.190056 10.617 -0.190054 12.3582 0.883887 13.4322L1.94455 12.3715ZM6.56782 19.1161C7.64177 20.1901 9.38297 20.1901 10.4569 19.1161L9.39625 18.0555C8.90809 18.5436 8.11664 18.5436 7.62848 18.0555L6.56782 19.1161ZM16.3409 13.2321C16.8731 12.6999 17.1639 11.9729 17.1456 11.2205L15.646 11.2571C15.6544 11.5991 15.5222 11.9295 15.2803 12.1714L16.3409 13.2321ZM7.82858 4.71972C8.07048 4.47782 8.40095 4.34564 8.74294 4.35398L8.77952 2.85442C8.02713 2.83607 7.3001 3.12688 6.76792 3.65906L7.82858 4.71972Z" fill="#FF5B6A"/>
<path d="M12.0129 6.3721C13.0196 6.10236 13.9407 7.02353 13.671 8.0302C13.4013 9.03686 12.1429 9.37403 11.406 8.6371C10.6691 7.90017 11.0062 6.64183 12.0129 6.3721Z" fill="#FF5B6A"/>
</svg>
